<svg width="121" height="36" viewBox="0 0 121 36" fill="none" xmlns="http://www.w3.org/2000/svg">
<g id="logo">
<g id="Zimtutor">
<path d="M15.041 8.489C15.041 8.88767 14.9283 9.25167 14.703 9.581L5.057 23.205H14.82V26H0.52V24.622C0.52 24.4487 0.550333 24.284 0.611 24.128C0.671667 23.9633 0.749667 23.8117 0.845 23.673L10.517 9.984H1.131V7.202H15.041V8.489ZM20.8908 12.662V26H17.6668V12.662H20.8908ZM21.3328 8.775C21.3328 9.05233 21.2765 9.31233 21.1638 9.555C21.0511 9.79767 20.8995 10.01 20.7088 10.192C20.5268 10.374 20.3101 10.5213 20.0588 10.634C19.8075 10.738 19.5388 10.79 19.2528 10.79C18.9755 10.79 18.7111 10.738 18.4598 10.634C18.2171 10.5213 18.0048 10.374 17.8228 10.192C17.6408 10.01 17.4935 9.79767 17.3808 9.555C17.2768 9.31233 17.2248 9.05233 17.2248 8.775C17.2248 8.489 17.2768 8.22033 17.3808 7.969C17.4935 7.71767 17.6408 7.501 17.8228 7.319C18.0048 7.137 18.2171 6.994 18.4598 6.89C18.7111 6.77733 18.9755 6.721 19.2528 6.721C19.5388 6.721 19.8075 6.77733 20.0588 6.89C20.3101 6.994 20.5268 7.137 20.7088 7.319C20.8995 7.501 21.0511 7.71767 21.1638 7.969C21.2765 8.22033 21.3328 8.489 21.3328 8.775ZM24.4244 26V12.662H26.3874C26.8034 12.662 27.0764 12.857 27.2064 13.247L27.4144 14.235C27.6484 13.975 27.891 13.7367 28.1424 13.52C28.4024 13.3033 28.6754 13.117 28.9614 12.961C29.256 12.805 29.568 12.6837 29.8974 12.597C30.2354 12.5017 30.6037 12.454 31.0024 12.454C31.843 12.454 32.532 12.6837 33.0694 13.143C33.6154 13.5937 34.0227 14.196 34.2914 14.95C34.4994 14.508 34.7594 14.131 35.0714 13.819C35.3834 13.4983 35.7257 13.2383 36.0984 13.039C36.471 12.8397 36.8654 12.6923 37.2814 12.597C37.706 12.5017 38.1307 12.454 38.5554 12.454C39.292 12.454 39.9464 12.5667 40.5184 12.792C41.0904 13.0173 41.5714 13.3467 41.9614 13.78C42.3514 14.2133 42.646 14.742 42.8454 15.366C43.0534 15.99 43.1574 16.705 43.1574 17.511V26H39.9464V17.511C39.9464 16.6617 39.76 16.0247 39.3874 15.6C39.0147 15.1667 38.4687 14.95 37.7494 14.95C37.42 14.95 37.1124 15.0063 36.8264 15.119C36.549 15.2317 36.302 15.3963 36.0854 15.613C35.8774 15.821 35.7127 16.0853 35.5914 16.406C35.47 16.7267 35.4094 17.095 35.4094 17.511V26H32.1854V17.511C32.1854 16.6183 32.0034 15.9683 31.6394 15.561C31.284 15.1537 30.7597 14.95 30.0664 14.95C29.5984 14.95 29.1607 15.067 28.7534 15.301C28.3547 15.5263 27.982 15.8383 27.6354 16.237V26H24.4244ZM50.7378 26.208C49.5764 26.208 48.6838 25.883 48.0598 25.233C47.4444 24.5743 47.1368 23.6687 47.1368 22.516V15.067H45.7718C45.5984 15.067 45.4511 15.0107 45.3298 14.898C45.2084 14.7853 45.1478 14.6163 45.1478 14.391V13.117L47.2928 12.766L47.9688 9.126C48.0121 8.95267 48.0944 8.81833 48.2158 8.723C48.3371 8.62767 48.4931 8.58 48.6838 8.58H50.3478V12.779H53.9098V15.067H50.3478V22.295C50.3478 22.711 50.4474 23.036 50.6468 23.27C50.8548 23.504 51.1364 23.621 51.4918 23.621C51.6911 23.621 51.8558 23.5993 51.9858 23.556C52.1244 23.504 52.2414 23.452 52.3368 23.4C52.4408 23.348 52.5318 23.3003 52.6098 23.257C52.6878 23.205 52.7658 23.179 52.8438 23.179C52.9391 23.179 53.0171 23.205 53.0778 23.257C53.1384 23.3003 53.2034 23.3697 53.2728 23.465L54.2348 25.025C53.7668 25.415 53.2294 25.7097 52.6228 25.909C52.0161 26.1083 51.3878 26.208 50.7378 26.208ZM67.7176 12.662V26H65.7546C65.3299 26 65.0613 25.805 64.9486 25.415L64.7276 24.349C64.1816 24.9037 63.5793 25.3543 62.9206 25.701C62.2619 26.039 61.4863 26.208 60.5936 26.208C59.8656 26.208 59.2199 26.0867 58.6566 25.844C58.1019 25.5927 57.6339 25.2417 57.2526 24.791C56.8713 24.3403 56.5809 23.8073 56.3816 23.192C56.1909 22.568 56.0956 21.8833 56.0956 21.138V12.662H59.3066V21.138C59.3066 21.9527 59.4929 22.5853 59.8656 23.036C60.2469 23.478 60.8146 23.699 61.5686 23.699C62.1233 23.699 62.6433 23.5777 63.1286 23.335C63.6139 23.0837 64.0733 22.7413 64.5066 22.308V12.662H67.7176ZM79.5074 26.208C78.3461 26.208 77.4534 25.883 76.8294 25.233C76.2141 24.5743 75.9064 23.6687 75.9064 22.516V15.067H74.5414C74.3681 15.067 74.2207 15.0107 74.0994 14.898C73.9781 14.7853 73.9174 14.6163 73.9174 14.391V13.117L76.0624 12.766L76.7384 9.126C76.7817 8.95267 76.8641 8.81833 76.9854 8.723C77.1067 8.62767 77.2627 8.58 77.4534 8.58H79.1174V12.779H82.6794V15.067H79.1174V22.295C79.1174 22.711 79.2171 23.036 79.4164 23.27C79.6244 23.504 79.9061 23.621 80.2614 23.621C80.4607 23.621 80.6254 23.5993 80.7554 23.556C80.8941 23.504 81.0111 23.452 81.1064 23.4C81.2104 23.348 81.3014 23.3003 81.3794 23.257C81.4574 23.205 81.5354 23.179 81.6134 23.179C81.7087 23.179 81.7867 23.205 81.8474 23.257C81.9081 23.3003 81.9731 23.3697 82.0424 23.465L83.0044 25.025C82.5364 25.415 81.9991 25.7097 81.3924 25.909C80.7857 26.1083 80.1574 26.208 79.5074 26.208ZM90.8972 12.454C91.8852 12.454 92.7822 12.6143 93.5882 12.935C94.4029 13.2557 95.0962 13.7107 95.6682 14.3C96.2489 14.8893 96.6952 15.6087 97.0072 16.458C97.3192 17.3073 97.4752 18.2563 97.4752 19.305C97.4752 20.3623 97.3192 21.3157 97.0072 22.165C96.6952 23.0143 96.2489 23.738 95.6682 24.336C95.0962 24.934 94.4029 25.3933 93.5882 25.714C92.7822 26.0347 91.8852 26.195 90.8972 26.195C89.9006 26.195 88.9949 26.0347 88.1802 25.714C87.3656 25.3933 86.6679 24.934 86.0872 24.336C85.5152 23.738 85.0689 23.0143 84.7482 22.165C84.4362 21.3157 84.2802 20.3623 84.2802 19.305C84.2802 18.2563 84.4362 17.3073 84.7482 16.458C85.0689 15.6087 85.5152 14.8893 86.0872 14.3C86.6679 13.7107 87.3656 13.2557 88.1802 12.935C88.9949 12.6143 89.9006 12.454 90.8972 12.454ZM90.8972 23.725C92.0066 23.725 92.8256 23.3523 93.3542 22.607C93.8916 21.8617 94.1602 20.7697 94.1602 19.331C94.1602 17.8923 93.8916 16.796 93.3542 16.042C92.8256 15.288 92.0066 14.911 90.8972 14.911C89.7706 14.911 88.9342 15.2923 88.3882 16.055C87.8509 16.809 87.5822 17.901 87.5822 19.331C87.5822 20.761 87.8509 21.853 88.3882 22.607C88.9342 23.3523 89.7706 23.725 90.8972 23.725ZM107.114 14.976C107.53 14.1787 108.024 13.5547 108.596 13.104C109.168 12.6447 109.844 12.415 110.624 12.415C111.239 12.415 111.733 12.5493 112.106 12.818L111.898 15.223C111.855 15.379 111.79 15.4917 111.703 15.561C111.625 15.6217 111.517 15.652 111.378 15.652C111.248 15.652 111.053 15.6303 110.793 15.587C110.542 15.5437 110.295 15.522 110.052 15.522C109.697 15.522 109.38 15.574 109.103 15.678C108.826 15.782 108.574 15.9337 108.349 16.133C108.132 16.3237 107.937 16.5577 107.764 16.835C107.599 17.1123 107.443 17.4287 107.296 17.784V26H104.085V12.662H105.97C106.299 12.662 106.529 12.7227 106.659 12.844C106.789 12.9567 106.876 13.1647 106.919 13.468L107.114 14.976Z" fill="white"/>
</g>
<path id="Ellipse 1" d="M102.5 13.0213C102.5 14.4447 101.932 16.5188 100.81 18.9216C99.7042 21.2892 98.1226 23.8427 96.2445 26.1913C94.364 28.543 92.2203 30.6466 90.0076 32.1506C87.7837 33.6622 85.5925 34.5 83.5833 34.5C79.6353 34.5 76.3739 31.3565 74.004 26.7023C71.6704 22.1196 70.5 16.6075 70.5 13.0213C70.5 11.8465 71.1498 10.5235 72.5939 9.11639C74.0237 7.72324 76.0848 6.39858 78.5166 5.24933C83.3892 2.9465 89.4212 1.5 94 1.5C96.2711 1.5 97.8609 1.85649 98.9845 2.40227C100.08 2.93445 100.802 3.67924 101.306 4.60809C102.383 6.59567 102.5 9.44148 102.5 13.0213Z" stroke="#4AAD6E" stroke-width="3"/>
</g>
</svg>
